<svg width="29" height="29" viewBox="0 0 29 29" fill="none" xmlns="http://www.w3.org/2000/svg">
<g id="&#208;&#161;&#208;&#190;&#209;&#134;&#209;&#129;&#208;&#181;&#209;&#130;&#208;&#184;">
<path id="Subtract" fill-rule="evenodd" clip-rule="evenodd" d="M10.7943 2.41602H18.2087C24.9802 2.41602 26.5788 4.02672 26.5788 10.7982V18.2126C26.5788 24.9841 24.9669 26.5827 18.1966 26.5827H10.7822C4.01073 26.5827 2.41211 24.9708 2.41211 18.2005V10.7861C2.41211 4.02672 4.02282 2.41602 10.7943 2.41602ZM21.0176 8.84614C21.1298 7.55062 19.7885 8.08411 19.7885 8.08411H19.7878C18.7947 8.50349 17.7704 8.92969 16.7351 9.36049C13.5366 10.6913 10.2327 12.066 7.41778 13.4191C5.89013 13.9906 6.78428 14.5621 6.78428 14.5621L9.20644 15.3245C10.324 15.6675 10.9202 15.2861 10.9202 15.2861L16.1366 11.6661C17.9995 10.3706 17.5524 11.4376 17.1054 11.8946L13.1935 15.7055C12.597 16.239 12.8953 16.6961 13.1562 16.925C13.895 17.5897 15.7116 18.8059 16.5062 19.3378C16.7134 19.4766 16.8511 19.5688 16.882 19.5924C17.0684 19.7449 18.0744 20.4305 18.7449 20.2784C19.4157 20.1259 19.4902 19.2495 19.4902 19.2495L20.3844 13.2666C20.5182 12.2312 20.6715 11.2358 20.7942 10.4396C20.9107 9.68286 20.9995 9.10612 21.0176 8.84614Z" fill="#3A9BD5"/>
</g>
</svg>
