<svg width="236" height="38" viewBox="0 0 236 38" fill="none" xmlns="http://www.w3.org/2000/svg">
<path d="M59.6337 21.6533C59.6337 21.6533 59.6337 25.9054 64.2312 25.828C67.3637 25.7744 68.2034 24.1247 68.2034 22.7252C68.2034 17.5858 54.4109 21.7128 54.4109 12.1844C54.4109 7.89655 57.9603 4.37101 63.8143 4.44247C72.1696 4.54371 73.4262 9.89753 73.4262 12.2141C71.1691 12.2141 70.0436 12.2141 67.7865 12.2022C67.7865 12.2022 67.7865 8.92682 63.8143 8.903C61.5156 8.89109 60.265 10.2013 60.265 11.7139C60.265 15.966 74.0574 12.905 74.0574 21.9451C74.0574 26.5783 70.5021 30.1396 64.2372 30.2825C55.6675 30.479 54 24.5595 54 21.7069C56.2571 21.6831 57.3826 21.6712 59.6397 21.6414L59.6337 21.6533Z" fill="#60C880"/>
<path d="M88.6779 15.8771C88.6779 11.7918 87.9276 9.96946 85.6288 9.95755C83.1216 9.94564 81.7817 12.0002 81.7817 16.818V29.1991C79.4413 29.2527 78.274 29.2765 75.9336 29.3301C75.9336 19.7123 75.9336 14.9064 75.9336 5.28859C78.1907 5.31241 79.3162 5.32432 81.5733 5.3541V9.25482C81.6566 9.25482 81.6983 9.25482 81.7817 9.25482C81.7817 9.25482 83.2467 4.6871 87.6298 4.7407C91.1375 4.78239 93.0193 6.61662 93.859 9.36797C93.8769 9.35011 93.8829 9.33819 93.9007 9.32033C93.9841 9.32033 94.0258 9.32033 94.1092 9.32033C94.1092 9.32033 95.991 4.83599 100.38 4.88958C105.811 4.95509 107.276 9.1774 107.276 14.4836V28.6334C104.936 28.687 103.769 28.7108 101.428 28.7644V15.8354C101.428 11.8216 100.678 10.035 98.3791 10.023C95.8719 10.0111 94.532 12.03 94.532 16.7585V28.9192C92.1916 28.9728 91.0243 28.9966 88.6839 29.0502V15.8831L88.6779 15.8771Z" fill="#60C880"/>
<path d="M114.798 21.0407C114.798 21.0407 114.798 24.9771 119.395 24.8997C122.528 24.8461 123.367 23.3215 123.367 22.0233C123.367 17.271 109.575 21.0943 109.575 12.2804C109.575 8.31419 113.124 5.05664 118.978 5.12811C127.334 5.22935 128.59 10.1722 128.59 12.3161C126.333 12.3161 125.208 12.3161 122.951 12.3042C122.951 12.3042 122.951 9.27895 118.978 9.25513C116.68 9.24321 115.429 10.4581 115.429 11.8576C115.429 15.7881 129.222 12.9593 129.222 21.3087C129.222 25.5905 125.666 28.8838 119.401 29.0267C110.838 29.2232 109.164 23.7503 109.164 21.1062C111.421 21.0823 112.547 21.0704 114.804 21.0407H114.798Z" fill="#60C880"/>
<path d="M147.606 27.7521C141.001 27.895 137.702 27.9724 131.098 28.1153C131.098 19.236 131.098 14.7993 131.098 5.91992C133.438 5.94374 134.605 5.96161 136.946 5.98543V23.3332C141.21 23.2677 143.342 23.2379 147.6 23.1724V27.7521H147.606Z" fill="white"/>
<path d="M158.682 5.62109C165.828 5.71042 169.127 10.701 169.127 16.8171C169.127 17.2994 169.086 18.026 169.086 18.026C162.934 18.0677 159.861 18.0915 153.709 18.1391C153.959 21.4384 155.383 23.886 158.89 23.8264C162.446 23.7669 163.071 20.5093 163.071 20.5093C165.411 20.4855 166.579 20.4677 168.919 20.4438C168.919 20.4438 167.668 27.9177 158.682 28.1262C151.369 28.2929 147.819 23.2607 147.819 16.9362C147.819 10.6116 151.541 5.53773 158.682 5.62705V5.62109ZM153.876 14.423C157.568 14.423 159.42 14.4171 163.113 14.4111C162.737 11.8146 161.564 9.93273 158.682 9.91487C155.799 9.897 154.376 11.7848 153.876 14.423Z" fill="white"/>
<path d="M171.01 12.7927C171.344 7.45671 175.816 5.83091 180.83 5.89642C186.053 5.96193 190.234 7.76043 190.234 13.013V26.8174C187.893 26.871 186.726 26.8948 184.386 26.9484V23.0239C184.302 23.0239 184.261 23.0239 184.177 23.0239C184.177 23.0239 182.837 27.5678 177.281 27.6988C173.309 27.7881 170.385 26.0908 170.385 22.2378C170.385 18.343 173.732 16.5505 177.323 15.6691C180.949 14.7817 184.386 14.5078 184.386 12.2269C184.386 10.619 183.135 9.66612 180.836 9.65421C178.329 9.63635 176.947 10.5832 176.864 12.8105C174.524 12.8105 173.356 12.8105 171.016 12.8046L171.01 12.7927ZM179.788 18.343C177.912 18.7956 176.316 19.7246 176.316 21.5529C176.316 23.143 177.489 24.1196 179.365 24.0839C183.338 24.0184 184.38 19.677 184.38 16.6576C183.421 17.4854 181.45 17.938 179.782 18.343H179.788Z" fill="white"/>
<path d="M214.055 26.2867C211.797 26.3343 210.672 26.3641 208.415 26.4117V23.7736C208.332 23.7736 208.29 23.7736 208.206 23.7736C208.206 23.7736 206.325 27.0251 201.519 27.1323C195.248 27.2753 192.115 22.3085 192.115 16.6867C192.115 11.0649 195.248 6.06845 201.519 6.14586C206.116 6.20542 207.998 8.86744 207.998 8.86744C208.081 8.86744 208.123 8.86744 208.206 8.86744V0C210.547 0.0535977 211.714 0.0833716 214.055 0.136969V26.2807V26.2867ZM203.186 10.1657C199.637 10.1478 197.963 13.054 197.963 16.6629C197.963 20.2718 199.637 23.1602 203.186 23.1006C206.741 23.041 208.409 20.1527 208.409 16.6034C208.409 13.054 206.735 10.1836 203.186 10.1597V10.1657Z" fill="white"/>
<path d="M221.582 19.854C221.582 19.854 221.582 23.1711 226.18 23.0937C229.312 23.0401 230.152 21.7538 230.152 20.6639C230.152 16.6679 216.359 19.9076 216.359 12.4694C216.359 9.12256 219.915 6.37717 225.763 6.44863C234.118 6.54987 235.375 10.7067 235.375 12.5052C233.117 12.5052 231.992 12.5052 229.735 12.4933C229.735 12.4933 229.735 9.95035 225.763 9.92653C223.464 9.91462 222.207 10.933 222.207 12.1121C222.207 15.4292 236 13.0412 236 20.0505C236 23.6475 232.444 26.4227 226.18 26.5656C217.61 26.7622 215.942 22.1468 215.942 19.9136C218.199 19.8897 219.325 19.8778 221.582 19.854Z" fill="white"/>
<path d="M7.90364 37.9884C7.90364 37.9884 13.0114 37.5437 16.7594 34.7595C16.7594 34.7595 34.0078 39.1726 42.9839 25.4769C42.9839 25.4769 51.3464 12.4397 35.193 2.72973C35.193 2.72973 21.5182 -4.30007 8.45111 4.20269C8.45111 4.20269 -4.3513 12.3762 3.2772 26.1585C3.2772 26.1585 6.67032 31.4439 11.3329 32.6453C11.3329 32.6453 11.1283 35.7068 7.90364 38V37.9884Z" fill="#60C880"/>
<path d="M0 1.68945L7.73398 4.70639C17.5235 8.52244 28.4765 8.52244 38.266 4.70639L46 1.68945V31.245H40.2312V11.8289L23.003 31.245L5.81706 12.0374V31.245H0V1.68945Z" fill="white"/>
</svg>
