<svg width="29" height="29" viewBox="0 0 29 29" fill="none" xmlns="http://www.w3.org/2000/svg">
<g id="&#208;&#161;&#208;&#190;&#209;&#134;&#209;&#129;&#208;&#181;&#209;&#130;&#208;&#184;">
<path id="Subtract" fill-rule="evenodd" clip-rule="evenodd" d="M10.7943 2.41602H18.2087C24.9802 2.41602 26.5788 4.02672 26.5788 10.7982V18.2126C26.5788 24.9841 24.9669 26.5827 18.1966 26.5827H10.7822C4.01073 26.5827 2.41211 24.9708 2.41211 18.2005V10.7861C2.41211 4.02672 4.02282 2.41602 10.7943 2.41602ZM8.23233 18.1485L7.25213 21.7503L10.8525 20.7679C11.9593 21.4133 13.218 21.7524 14.4992 21.7503C18.5034 21.7503 21.7492 18.5045 21.7492 14.5003C21.7492 10.4961 18.5034 7.25029 14.4992 7.25029C10.4951 7.25029 7.24923 10.4961 7.24923 14.5003C7.24712 15.7821 7.58645 17.0413 8.23233 18.1485ZM11.6137 11.1711C11.6976 11.1291 11.7891 11.1044 11.8827 11.0986V11.0979C11.9799 11.0911 12.0775 11.0901 12.1749 11.095C12.214 11.0979 12.2532 11.1022 12.2923 11.1066C12.4076 11.1203 12.5345 11.1899 12.5772 11.2871C12.7933 11.7772 13.0035 12.2709 13.2065 12.7668C13.2515 12.8763 13.2247 13.0177 13.1391 13.1554C13.0803 13.2488 13.0167 13.3391 12.9485 13.4258C12.8665 13.5302 12.6903 13.7231 12.6903 13.7231C12.6903 13.7231 12.6186 13.8086 12.6461 13.9152C12.6645 13.9676 12.6894 14.0176 12.7201 14.0638L12.7628 14.1327C12.9685 14.4698 13.2171 14.7789 13.5023 15.052C13.5258 15.0747 13.5491 15.0975 13.5724 15.1204C13.6355 15.1825 13.6988 15.2446 13.7655 15.3029C14.105 15.6022 14.489 15.8468 14.9038 16.0279L14.9074 16.0293C14.9252 16.0371 14.9405 16.0438 14.9554 16.0504C14.992 16.0665 15.0262 16.0816 15.0901 16.1083C15.1351 16.1276 15.1813 16.1436 15.2286 16.1562C15.2774 16.1687 15.3288 16.1665 15.3763 16.1497C15.4238 16.1329 15.4653 16.1024 15.4954 16.0619C16.0195 15.4268 16.0681 15.3855 16.0717 15.3855V15.387C16.1082 15.353 16.1515 15.3271 16.1988 15.3113C16.2461 15.2954 16.2962 15.2898 16.3458 15.2949C16.39 15.2968 16.4335 15.3069 16.4741 15.3246C16.8591 15.5001 17.4898 15.7748 17.4898 15.7748L17.9118 15.9641C17.9821 15.9981 18.0466 16.0786 18.0495 16.1562C18.0497 16.1589 18.0498 16.1617 18.0499 16.1647C18.0522 16.2138 18.0558 16.2911 18.0394 16.4266C18.0162 16.6144 17.9596 16.8399 17.9031 16.958C17.8632 17.0414 17.811 17.1146 17.7508 17.177C17.6696 17.2618 17.6095 17.3133 17.5116 17.3858C17.4521 17.4307 17.421 17.451 17.421 17.451C17.3309 17.5084 17.2382 17.5616 17.1433 17.6105C16.9567 17.7099 16.7505 17.7671 16.5394 17.778C16.5159 17.7791 16.4925 17.7804 16.4691 17.7816C16.3579 17.7875 16.2471 17.7934 16.1363 17.7874L15.7237 17.7244C14.693 17.4532 13.7397 16.9453 12.9397 16.241C12.8031 16.1201 12.6746 15.9916 12.5452 15.8623C12.5202 15.8373 12.4951 15.8122 12.4699 15.7872C11.8254 15.1455 11.3375 14.4532 11.041 13.7992C10.896 13.4759 10.8032 13.13 10.8017 12.7748C10.7993 12.335 10.9434 11.907 11.2114 11.5582C11.2194 11.5478 11.2273 11.5373 11.2353 11.5267C11.2801 11.4676 11.3268 11.4059 11.4006 11.3364C11.4633 11.2713 11.5351 11.2156 11.6137 11.1711Z" fill="#99F263"/>
</g>
</svg>
