<svg width="29" height="29" fill="none" xmlns="http://www.w3.org/2000/svg"><path fill-rule="evenodd" clip-rule="evenodd" d="M10.794 2.416h7.415c6.771 0 8.37 1.61 8.37 8.382v7.415c0 6.771-1.612 8.37-8.382 8.37h-7.415c-6.771 0-8.37-1.612-8.37-8.382v-7.415c0-6.76 1.61-8.37 8.382-8.37ZM8.232 18.148l-.98 3.602 3.6-.982a7.25 7.25 0 1 0-2.62-2.62Zm3.382-6.977a.697.697 0 0 1 .269-.072v-.001c.097-.007.195-.008.292-.003l.117.012c.116.013.242.083.285.18.216.49.427.984.63 1.48.044.11.018.25-.068.388a3.163 3.163 0 0 1-.19.27c-.082.105-.259.298-.259.298s-.071.086-.044.192a.67.67 0 0 0 .074.149l.043.069a4.565 4.565 0 0 0 .81.987 4.358 4.358 0 0 0 1.331.907l.003.002.048.021c.037.017.071.032.135.058.045.02.091.036.139.048a.254.254 0 0 0 .266-.094c.525-.635.573-.677.577-.677v.002a.349.349 0 0 1 .274-.092.36.36 0 0 1 .128.03c.385.175 1.016.45 1.016.45l.422.19c.07.033.135.114.137.191v.009c.003.049.007.126-.01.262a2.02 2.02 0 0 1-.136.531.833.833 0 0 1-.152.219 1.663 1.663 0 0 1-.24.209c-.059.045-.09.065-.09.065-.09.057-.183.11-.278.16a1.448 1.448 0 0 1-.604.167l-.07.004a3.084 3.084 0 0 1-.333.005l-.412-.063a6.852 6.852 0 0 1-2.784-1.483c-.137-.12-.265-.25-.395-.379l-.075-.075c-.645-.642-1.133-1.334-1.429-1.988a2.537 2.537 0 0 1-.24-1.024c-.002-.44.142-.868.41-1.217l.024-.031c.045-.06.092-.121.166-.19a.937.937 0 0 1 .213-.166Z" fill="#99F263"/></svg>