<svg width="29" height="29" fill="none" xmlns="http://www.w3.org/2000/svg"><path fill-rule="evenodd" clip-rule="evenodd" d="M10.794 2.416h7.415c6.771 0 8.37 1.61 8.37 8.382v7.415c0 6.771-1.612 8.37-8.382 8.37h-7.415c-6.771 0-8.37-1.612-8.37-8.382v-7.415c0-6.76 1.61-8.37 8.382-8.37Zm10.224 6.43c.112-1.295-1.23-.762-1.23-.762-.993.42-2.018.846-3.053 1.276-3.198 1.331-6.502 2.706-9.317 4.06-1.528.57-.634 1.142-.634 1.142l2.422.763c1.118.343 1.714-.039 1.714-.039l5.217-3.62c1.863-1.295 1.415-.228.968.229l-3.912 3.81c-.596.534-.298.991-.037 1.22.739.665 2.556 1.88 3.35 2.413.207.139.345.23.376.254.186.153 1.192.838 1.863.686.67-.152.745-1.028.745-1.028l.894-5.983c.134-1.036.288-2.031.41-2.827.117-.757.206-1.334.224-1.594Z" fill="#3A9BD5"/></svg>