<?xml version="1.0" encoding="utf-8"?><svg viewBox="0 0 236 38" xmlns="http://www.w3.org/2000/svg" xmlns:xlink="http://www.w3.org/1999/xlink"><style>:root>svg{display:none}:root>svg:target{display:block}</style><svg fill="none" viewBox="0 0 236 38" id="icon-logo" xmlns="http://www.w3.org/2000/svg"><path d="M59.634 21.653s0 4.252 4.597 4.175c3.133-.054 3.972-1.703 3.972-3.103 0-5.14-13.792-1.012-13.792-10.54 0-4.288 3.55-7.814 9.403-7.743 8.356.102 9.612 5.456 9.612 7.772-2.257 0-3.382 0-5.64-.012 0 0 0-3.275-3.972-3.299-2.298-.012-3.549 1.298-3.549 2.81 0 4.253 13.792 1.192 13.792 10.232 0 4.633-3.555 8.195-9.82 8.337C55.667 30.48 54 24.56 54 21.707c2.257-.024 3.383-.036 5.64-.066l-.006.012zM88.678 15.877c0-4.085-.75-5.908-3.05-5.92-2.506-.011-3.846 2.043-3.846 6.861v12.381c-2.34.054-3.508.077-5.848.131V5.29c2.257.023 3.382.035 5.64.065v3.9h.208s1.465-4.567 5.848-4.513c3.508.041 5.39 1.876 6.229 4.627.018-.018.024-.03.042-.048h.208s1.882-4.484 6.271-4.43c5.431.065 6.896 4.287 6.896 9.594v14.15l-5.848.13V15.835c0-4.013-.75-5.8-3.049-5.812-2.507-.012-3.847 2.007-3.847 6.736v12.16c-2.34.054-3.508.078-5.848.131V15.883l-.006-.006zM114.798 21.04s0 3.937 4.597 3.86c3.133-.054 3.972-1.578 3.972-2.877 0-4.752-13.792-.929-13.792-9.743 0-3.966 3.549-7.223 9.403-7.152 8.356.101 9.612 5.044 9.612 7.188-2.257 0-3.382 0-5.639-.012 0 0 0-3.025-3.973-3.049-2.298-.012-3.549 1.203-3.549 2.603 0 3.93 13.793 1.101 13.793 9.45 0 4.282-3.556 7.576-9.821 7.719-8.563.196-10.237-5.277-10.237-7.92 2.257-.025 3.383-.037 5.64-.066h-.006z" fill="#60C880"/><path d="M147.606 27.752c-6.605.143-9.904.22-16.508.363V5.92c2.34.024 3.507.042 5.848.065v17.348c4.264-.065 6.396-.095 10.654-.16v4.58h.006zM158.682 5.621c7.146.09 10.445 5.08 10.445 11.196 0 .482-.041 1.209-.041 1.209-6.152.042-9.225.066-15.377.113.25 3.3 1.674 5.747 5.181 5.687 3.556-.06 4.181-3.317 4.181-3.317 2.34-.024 3.508-.041 5.848-.065 0 0-1.251 7.474-10.237 7.682-7.313.167-10.863-4.865-10.863-11.19 0-6.324 3.722-11.398 10.863-11.309v-.006zm-4.806 8.802c3.692 0 5.544-.006 9.237-.012-.376-2.596-1.549-4.478-4.431-4.496-2.883-.018-4.306 1.87-4.806 4.508zM171.01 12.793c.334-5.336 4.806-6.962 9.82-6.897 5.223.066 9.404 1.864 9.404 7.117v13.804c-2.341.054-3.508.078-5.848.131v-3.924h-.209s-1.34 4.544-6.896 4.675c-3.972.09-6.896-1.608-6.896-5.461 0-3.895 3.347-5.688 6.938-6.569 3.626-.887 7.063-1.161 7.063-3.442 0-1.608-1.251-2.56-3.55-2.573-2.507-.018-3.889.93-3.972 3.156-2.34 0-3.508 0-5.848-.005l-.006-.012zm8.778 5.55c-1.876.453-3.472 1.382-3.472 3.21 0 1.59 1.173 2.567 3.049 2.53 3.973-.065 5.015-4.406 5.015-7.425-.959.827-2.93 1.28-4.598 1.685h.006zM214.055 26.287c-2.258.047-3.383.077-5.64.125v-2.638h-.209s-1.881 3.251-6.687 3.358c-6.271.143-9.404-4.824-9.404-10.445 0-5.622 3.133-10.619 9.404-10.541 4.597.06 6.479 2.721 6.479 2.721h.208V0l5.849.137v26.15zm-10.869-16.121c-3.549-.018-5.223 2.888-5.223 6.497s1.674 6.497 5.223 6.438c3.555-.06 5.223-2.948 5.223-6.498 0-3.549-1.674-6.42-5.223-6.443v.006zM221.582 19.854s0 3.317 4.598 3.24c3.132-.054 3.972-1.34 3.972-2.43 0-3.996-13.793-.756-13.793-8.195 0-3.346 3.556-6.092 9.404-6.02 8.355.1 9.612 4.258 9.612 6.056-2.258 0-3.383 0-5.64-.012 0 0 0-2.543-3.972-2.566-2.299-.012-3.556 1.006-3.556 2.185 0 3.317 13.793.93 13.793 7.938 0 3.598-3.556 6.373-9.82 6.516-8.57.196-10.238-4.42-10.238-6.652l5.64-.06z" fill="#fff"/><path d="M7.904 37.988s5.107-.444 8.855-3.228c0 0 17.249 4.413 26.225-9.283 0 0 8.362-13.037-7.791-22.747 0 0-13.675-7.03-26.742 1.473 0 0-12.802 8.173-5.174 21.956 0 0 3.393 5.285 8.056 6.486 0 0-.205 3.062-3.43 5.355v-.012z" fill="#60C880"/><path d="M0 1.69l7.734 3.016a42.145 42.145 0 0030.532 0L46 1.69v29.556h-5.769V11.829L23.003 31.245 5.817 12.037v19.208H0V1.689z" fill="#fff"/></svg><svg fill="none" viewBox="0 0 29 29" id="icon-tg" xmlns="http://www.w3.org/2000/svg"><path fill-rule="evenodd" clip-rule="evenodd" d="M10.794 2.416h7.415c6.771 0 8.37 1.61 8.37 8.382v7.415c0 6.771-1.612 8.37-8.382 8.37h-7.415c-6.771 0-8.37-1.612-8.37-8.382v-7.415c0-6.76 1.61-8.37 8.382-8.37zm10.224 6.43c.112-1.295-1.23-.762-1.23-.762-.993.42-2.018.846-3.053 1.276-3.198 1.331-6.502 2.706-9.317 4.06-1.528.57-.634 1.142-.634 1.142l2.422.763c1.118.343 1.714-.039 1.714-.039l5.217-3.62c1.863-1.295 1.415-.228.968.229l-3.912 3.81c-.596.534-.298.991-.037 1.22.739.665 2.556 1.88 3.35 2.413.207.139.345.23.376.254.186.153 1.192.838 1.863.686.67-.152.745-1.028.745-1.028l.894-5.983c.134-1.036.288-2.031.41-2.827.117-.757.206-1.334.224-1.594z" fill="#3A9BD5"/></svg><svg fill="none" viewBox="0 0 29 29" id="icon-wa" xmlns="http://www.w3.org/2000/svg"><path fill-rule="evenodd" clip-rule="evenodd" d="M10.794 2.416h7.415c6.771 0 8.37 1.61 8.37 8.382v7.415c0 6.771-1.612 8.37-8.382 8.37h-7.415c-6.771 0-8.37-1.612-8.37-8.382v-7.415c0-6.76 1.61-8.37 8.382-8.37zM8.232 18.148l-.98 3.602 3.6-.982a7.25 7.25 0 10-2.62-2.62zm3.382-6.977a.697.697 0 01.269-.072v-.001c.097-.007.195-.008.292-.003l.117.012c.116.013.242.083.285.18.216.49.427.984.63 1.48.044.11.018.25-.068.388a3.163 3.163 0 01-.19.27c-.082.105-.259.298-.259.298s-.071.086-.044.192a.67.67 0 00.074.149l.043.069a4.565 4.565 0 00.81.987 4.358 4.358 0 001.331.907l.003.002.048.021c.037.017.071.032.135.058.045.02.091.036.139.048a.254.254 0 00.266-.094c.525-.635.573-.677.577-.677v.002a.349.349 0 01.274-.092.36.36 0 01.128.03c.385.175 1.016.45 1.016.45l.422.19c.07.033.135.114.137.191v.009c.003.049.007.126-.01.262a2.02 2.02 0 01-.136.531.833.833 0 01-.152.219 1.663 1.663 0 01-.24.209c-.059.045-.09.065-.09.065-.09.057-.183.11-.278.16-.186.099-.393.156-.604.167l-.07.004c-.111.006-.222.011-.333.005l-.412-.063a6.852 6.852 0 01-2.784-1.483c-.137-.12-.265-.25-.395-.379l-.075-.075c-.645-.642-1.133-1.334-1.429-1.988a2.537 2.537 0 01-.24-1.024c-.002-.44.142-.868.41-1.217l.024-.031c.045-.06.092-.121.166-.19a.937.937 0 01.213-.166z" fill="#99F263"/></svg></svg>